<?xml version="1.0" standalone="no"?>
<!DOCTYPE svg PUBLIC "-//W3C//DTD SVG 20010904//EN"
 "http://www.w3.org/TR/2001/REC-SVG-20010904/DTD/svg10.dtd">
<svg version="1.0" xmlns="http://www.w3.org/2000/svg"
 width="147.000000pt" height="147.000000pt" viewBox="0 0 147.000000 147.000000"
 preserveAspectRatio="xMidYMid meet">
<metadata>
Created by potrace 1.14, written by Peter Selinger 2001-2017
</metadata>
<g transform="translate(0.000000,147.000000) scale(0.100000,-0.100000)"
fill="#000000" stroke="none">
<path d="M954 1440 c31 -150 31 -199 -5 -275 l-20 -43 -114 1 -113 1 -15 55
c-9 31 -21 82 -27 113 -6 32 -19 67 -29 80 l-18 22 -13 -24 c-10 -19 -27 -162
-30 -255 -1 -33 -45 -47 -89 -29 -84 35 -186 23 -252 -31 -42 -35 -90 -96 -83
-107 4 -5 34 -23 68 -39 89 -42 175 -38 249 14 16 10 30 17 33 14 11 -11 52
-145 55 -181 l4 -39 -70 -24 c-174 -60 -312 -95 -390 -98 -44 -2 -83 -4 -87
-4 -5 -1 -8 -134 -8 -296 l0 -295 381 0 381 0 -4 84 -4 84 46 -49 c56 -60 71
-61 171 -15 41 19 93 36 116 39 78 8 110 48 115 142 2 35 -7 132 -18 190 -8
45 -23 175 -29 245 -6 78 -28 201 -44 242 l-9 23 102 0 c93 0 105 3 161 32 33
17 71 43 85 58 23 24 24 28 10 53 -17 30 -100 74 -140 75 -70 1 -154 -33 -229
-94 -25 -20 -46 -29 -56 -25 -15 5 -15 9 3 33 24 35 41 104 37 147 -4 44 -74
175 -104 195 l-24 16 7 -35z"/>
</g>
</svg>
